<svg xmlns="http://www.w3.org/2000/svg" viewBox="0 0 32 32"><defs><style>.cls-1{fill:#30acc2;}.cls-2{fill:#68c7d3;}.cls-3{fill:#d1e6e9;}.cls-4{fill:#a1d8df;}</style></defs><title>Timer</title><g id="Timer"><rect class="cls-1" x="13" y="4" width="4" height="5"/><rect class="cls-2" x="11" y="1" width="8" height="4"/><rect class="cls-3" x="21.71" y="7.81" width="2" height="4" transform="translate(11.62 -12.31) rotate(40)"/><rect class="cls-4" x="22.64" y="6.51" width="4" height="2" transform="translate(10.59 -14.08) rotate(40)"/><circle class="cls-2" cx="15" cy="19" r="12"/><circle class="cls-3" cx="15" cy="19" r="9"/><path class="cls-1" d="M16,19a1,1,0,0,1-2,0A1,1,0,0,1,16,19Z"/><polygon class="cls-1" points="16 19 14 19 15 11 16 19"/><polygon class="cls-1" points="15 18 15 20 9 19 15 18"/></g></svg>